<?xml version="1.0" encoding="utf-8"?>
<!-- Generator: Adobe Illustrator 23.0.1, SVG Export Plug-In . SVG Version: 6.00 Build 0)  -->
<svg version="1.1" id="Capa_1" xmlns="http://www.w3.org/2000/svg" xmlns:xlink="http://www.w3.org/1999/xlink" x="0px" y="0px"
	 viewBox="0 0 295 207" style="enable-background:new 0 0 295 207;" xml:space="preserve">
<g>
	<path d="M47.99,150.5L47.99,150.5c-4.64,0-8.44-2.13-8.44-4.64l-4.64-98.2c0-2.6,3.8-4.64,8.44-4.64s8.44,2.13,8.44,4.64
		l4.73,98.11C56.43,148.37,52.63,150.5,47.99,150.5"/>
	<path d="M58.84,183.79c-0.65-3.89-4.45-6.58-8.35-5.93l-24.29,4.17L19.62,17.44c0-4.64-3.8-8.44-8.44-8.44s-8.44,3.8-8.44,8.44
		L9.6,189.63c0,4.54,3.71,8.35,8.25,8.44l0,0c0.09,0,0.09,0,0.19,0c0.19,0,0.37,0,0.46,0s0.09,0,0.19,0c0.37,0,0.74-0.09,1.02-0.19
		l33.1-5.66C56.8,191.48,59.49,187.68,58.84,183.79"/>
	<path d="M107.34,8.81L107.34,8.81c-0.46-3.99-4.08-6.86-8.07-6.4L44.93,8.63c-3.99,0.46-6.86,4.08-6.4,8.07s4.08,6.86,8.07,6.4
		l22.07-2.5l11.68,174.88c0,4.73,3.8,8.62,8.44,8.62c4.64,0,8.44-3.89,8.44-8.62L85.45,18.92c0-0.09,0-0.19,0-0.28l15.58-1.76
		C104.93,16.42,107.8,12.8,107.34,8.81"/>
	<path d="M146.65,73.16L146.65,73.16c-0.09-1.02-0.46-2.04-1.02-2.87l1.02-37.46c0.19-2.69-3.43-5.19-8.07-5.56
		c-4.64-0.37-8.53,1.58-8.72,4.36l-1.02,36.35l-13.82,1.58l-0.93-21.42c0-2.78-3.8-5.1-8.44-5.1c-4.64,0-8.44,2.32-8.44,5.1
		l4.73,106.91c0,2.78,3.8,5.1,8.44,5.1c4.64,0,8.44-2.32,8.44-5.1l-3.15-70.94l12.8-1.48L127,135.85c-0.19,2.69,3.43,5.19,8.07,5.56
		c4.64,0.37,8.53-1.58,8.72-4.36l1.58-58.97C146.38,76.69,146.84,75.02,146.65,73.16"/>
	<path d="M193.11,23.37c-15.86-2.13-30.69,9.09-32.83,24.94l-8.25,60.64c-2.13,15.86,9.09,30.69,24.94,32.83
		c15.86,2.13,30.69-9.09,32.83-24.94l8.25-60.64c0.19-1.3,0.28-2.6,0.28-3.89C218.33,38.02,207.67,25.41,193.11,23.37 M202.01,57.68
		l-7.79,57.31c-0.93,7.05-7.42,11.96-14.56,11.03c-7.05-0.93-11.96-7.42-11.03-14.56l7.79-57.31c0.93-7.05,7.42-11.96,14.56-11.03
		c6.49,0.83,11.13,6.4,11.13,12.8C202.1,56.47,202.1,57.03,202.01,57.68"/>
	<g>
		<path d="M111.23,170.43v15.76h-2.04v-15.76H111.23z"/>
		<path d="M119.76,170.43h2.04v14h6.77v1.67h-8.72v-15.67H119.76z"/>
		<path d="M137.75,170.43v9.37c0,3.52,1.58,5.01,3.71,5.01c2.32,0,3.8-1.58,3.8-5.01v-9.37h2.04v9.18c0,4.82-2.5,6.86-5.93,6.86
			c-3.25,0-5.66-1.85-5.66-6.77v-9.27L137.75,170.43L137.75,170.43z"/>
		<path d="M155.46,183.79c0.93,0.56,2.23,1.02,3.62,1.02c2.04,0,3.34-1.11,3.34-2.69c0-1.48-0.83-2.32-2.97-3.15
			c-2.6-0.93-4.17-2.23-4.17-4.45c0-2.41,2.04-4.27,5.1-4.27c1.58,0,2.78,0.37,3.52,0.74l-0.56,1.67c-0.56-0.28-1.58-0.74-2.97-0.74
			c-2.13,0-2.97,1.3-2.97,2.32c0,1.48,0.93,2.23,3.15,3.06c2.69,1.02,3.99,2.32,3.99,4.64c0,2.41-1.76,4.54-5.47,4.54
			c-1.48,0-3.15-0.46-3.99-1.02L155.46,183.79z"/>
		<path d="M175.21,172.2h-4.82v-1.76h11.68v1.76h-4.82v14h-2.04V172.2L175.21,172.2z"/>
		<path d="M188.75,170.71c1.02-0.19,2.5-0.37,3.89-0.37c2.13,0,3.62,0.37,4.54,1.3c0.83,0.74,1.21,1.76,1.21,2.97
			c0,2.04-1.3,3.43-2.97,3.99v0.09c1.21,0.46,1.95,1.58,2.32,3.15c0.56,2.23,0.93,3.71,1.21,4.36h-2.13
			c-0.28-0.46-0.65-1.76-1.02-3.8c-0.46-2.13-1.3-2.97-3.15-3.06h-1.95v6.86h-1.95V170.71z M190.79,177.85h2.04
			c2.13,0,3.52-1.21,3.52-2.97c0-2.04-1.48-2.87-3.62-2.97c-1.02,0-1.67,0.09-2.04,0.19v5.75H190.79z"/>
		<path d="M208.87,181.28l-1.67,4.91h-2.13l5.38-15.76h2.41l5.38,15.76h-2.13l-1.67-4.91H208.87z M213.97,179.71l-1.58-4.54
			c-0.37-1.02-0.56-1.95-0.83-2.87h-0.09c-0.28,0.93-0.46,1.85-0.83,2.87l-1.58,4.54H213.97z"/>
		<path d="M228.53,172.2h-4.82v-1.76h11.68v1.76h-4.82v14h-2.04L228.53,172.2L228.53,172.2z"/>
		<path d="M244.11,170.43v15.76h-2.04v-15.76H244.11z"/>
		<path d="M266.09,178.22c0,5.38-3.34,8.25-7.33,8.25c-4.17,0-7.05-3.25-7.05-7.97c0-5.01,3.15-8.25,7.33-8.25
			C263.3,170.25,266.09,173.49,266.09,178.22z M253.85,178.41c0,3.34,1.85,6.4,5.01,6.4c3.25,0,5.01-2.97,5.01-6.58
			c0-3.15-1.67-6.4-5.01-6.4C255.51,171.92,253.85,174.98,253.85,178.41z"/>
		<path d="M273.69,186.2v-15.76h2.23l5.01,7.97c1.21,1.85,2.04,3.52,2.78,5.1h0.09c-0.19-2.13-0.28-3.99-0.28-6.49v-6.58h1.95v15.76
			h-2.04l-5.01-7.97c-1.11-1.76-2.13-3.52-2.97-5.29h-0.09c0.09,1.95,0.19,3.89,0.19,6.49v6.77H273.69z"/>
	</g>
</g>
</svg>
